# xmcd
#
# Track frame offsets:
# 150
# 17700
# 33885
# 47250
# 61816
# 76078
# 87315
# 100664
# 115637
# 129482
# 143199
# 155462
# 169433
# 180357
#
# Disc length: 2572 seconds
#
#
# Revision: 0
# Processed by: cddbd v1.5.2PL0 Copyright (c) Steve Scherf et al.
# Submitted via: FreeRIP 2.951 
#
DISCID=9f0a0a0e
DTITLE=Belmonte e Amaraí - Popularidade - Belmonte e Amaraí
DYEAR=1900
DGENRE=Sertanejo
TTITLE0=Cavalinho de pau
TTITLE1=Ave mensageira
TTITLE2=Ave sem ninho
TTITLE3=O Tropeiro
TTITLE4=A hora do amor
TTITLE5=Amor distante
TTITLE6=Os verdes campos de minha terra
TTITLE7=Uma noite, não
TTITLE8=Velha canoa
TTITLE9=Amor de artista
TTITLE10=A voz do amor
TTITLE11=Não vá embora
TTITLE12=Eterna saudade
TTITLE13=Merceditas
EXTD=
EXTT0=
EXTT1=
EXTT2=
EXTT3=
EXTT4=
EXTT5=
EXTT6=
EXTT7=
EXTT8=
EXTT9=
EXTT10=
EXTT11=
EXTT12=
EXTT13=
PLAYORDER=
